<?xml version="1.0" encoding="utf-8"?><!-- Uploaded to: SVG Repo, www.svgrepo.com, Generator: SVG Repo Mixer Tools -->
<svg width="800px" height="800px" viewBox="0 0 24 24" fill="none" xmlns="http://www.w3.org/2000/svg">
<path d="M7.9 16.0999C7.31233 15.266 6.99789 14.2702 7.00001 13.25C6.99841 12.3353 7.24772 11.4378 7.72081 10.655C8.19389 9.87222 8.87261 9.23421 9.68312 8.81039C10.4936 8.38658 11.4049 8.19321 12.3176 8.25131C13.2304 8.30942 14.1098 8.61682 14.86 9.13998" stroke="#000000" stroke-width="1.5" stroke-linecap="round" stroke-linejoin="round"/>
<path d="M16.6991 11.5399C16.9013 12.0872 17.003 12.6666 16.9991 13.25C16.9991 14.5761 16.4723 15.8478 15.5346 16.7855C14.5969 17.7232 13.3252 18.25 11.9991 18.25C11.4162 18.2481 10.8378 18.1466 10.2891 17.95" stroke="#000000" stroke-width="1.5" stroke-linecap="round" stroke-linejoin="round"/>
<path d="M20.9486 7.28992C21.626 8.02965 22.0008 8.99697 21.9986 10L21.3286 18C21.2211 19.081 20.7211 20.0851 19.9232 20.8223C19.1252 21.5594 18.0847 21.9784 16.9986 22H6.9986C6.76728 22.0003 6.53638 21.9802 6.30859 21.9399" stroke="#000000" stroke-width="1.5" stroke-linecap="round" stroke-linejoin="round"/>
<path d="M3.63874 20.36C3.07236 19.6977 2.72326 18.8773 2.63874 18.01L1.96876 10.01C1.96722 9.14153 2.24838 8.29613 2.76975 7.60156C3.29113 6.907 4.02437 6.40091 4.85874 6.15991C5.68459 5.9183 6.41052 5.41689 6.92875 4.72998L7.76874 3.60999C8.14133 3.1132 8.62446 2.70996 9.17988 2.43225C9.7353 2.15454 10.3478 2.01001 10.9688 2.01001H12.9688C13.5897 2.01001 14.2022 2.15454 14.7576 2.43225C15.313 2.70996 15.7962 3.1132 16.1687 3.60999L17.0187 4.72998C17.3398 5.14029 17.7413 5.4806 18.1987 5.72998" stroke="#000000" stroke-width="1.5" stroke-linecap="round" stroke-linejoin="round"/>
<path d="M22 2L2 22" stroke="#000000" stroke-width="1.5" stroke-linecap="round" stroke-linejoin="round"/>
</svg>